<svg width="33.000000" height="33.000000" viewBox="0 0 33 33" fill="none" xmlns="http://www.w3.org/2000/svg" xmlns:xlink="http://www.w3.org/1999/xlink">
	<desc>
			Created with Pixso.
	</desc>
	<defs>
		<clipPath id="clip2_1082">
			<rect id="immersive 1" rx="0.000000" width="32.000000" height="32.000000" transform="translate(0.500000 0.500000)" fill="white" fill-opacity="0"/>
		</clipPath>
	</defs>
	<rect id="immersive 1" rx="0.000000" width="32.000000" height="32.000000" transform="translate(0.500000 0.500000)" fill="#FFFFFF" fill-opacity="0"/>
	<g clip-path="url(#clip2_1082)">
		<path id="Vector" d="M15.81 16.5C15.43 16.5 15.12 16.19 15.12 15.81L15.12 8.93C15.12 8.55 15.43 8.25 15.81 8.25L17.87 8.25C19.39 8.25 20.62 9.48 20.62 11C20.62 12.51 19.39 13.75 17.87 13.75L16.5 13.75L16.5 15.81C16.5 16.19 16.19 16.5 15.81 16.5ZM16.5 12.37L17.87 12.37C18.63 12.37 19.25 11.75 19.25 11C19.25 10.24 18.63 9.62 17.87 9.62L16.5 9.62L16.5 12.37Z" fill="#00329B" fill-opacity="1.000000" fill-rule="nonzero"/>
		<path id="Vector" d="M19.93 16.5C19.76 16.5 19.58 16.43 19.45 16.29L16.7 13.54C16.43 13.28 16.43 12.84 16.7 12.57C16.96 12.3 17.4 12.3 17.67 12.57L20.42 15.32C20.69 15.59 20.69 16.03 20.42 16.29C20.28 16.43 20.11 16.5 19.93 16.5Z" fill="#00329B" fill-opacity="1.000000" fill-rule="nonzero"/>
		<path id="Vector" d="M9.62 16.5C9.32 16.5 9.05 16.3 8.96 16.01L6.9 9.13C6.79 8.77 7 8.38 7.36 8.27C7.72 8.17 8.11 8.37 8.22 8.73L9.62 13.41L11.02 8.74C11.13 8.37 11.52 8.17 11.88 8.28C12.24 8.39 12.45 8.77 12.34 9.13L10.28 16.01C10.19 16.3 9.92 16.5 9.62 16.5Z" fill="#00329B" fill-opacity="1.000000" fill-rule="nonzero"/>
		<path id="Vector" d="M25.43 12.37C24.3 12.37 23.37 11.44 23.37 10.31C23.37 9.17 24.3 8.25 25.43 8.25C26.57 8.25 27.5 9.17 27.5 10.31C27.5 11.44 26.57 12.37 25.43 12.37ZM25.43 9.62C25.05 9.62 24.75 9.93 24.75 10.31C24.75 10.69 25.05 11 25.43 11C25.81 11 26.12 10.69 26.12 10.31C26.12 9.93 25.81 9.62 25.43 9.62Z" fill="#00329B" fill-opacity="1.000000" fill-rule="nonzero"/>
		<path id="Vector" d="M29.56 23.37L20.85 23.37C20.56 23.37 20.3 23.18 20.2 22.9L19.6 21.08C19.5 20.81 19.24 20.62 18.94 20.62L14.05 20.62C13.75 20.62 13.49 20.81 13.39 21.1L12.79 22.9C12.69 23.18 12.43 23.37 12.14 23.37L3.43 23.37C1.54 23.37 0 21.83 0 19.93L0 7.56C0 5.66 1.54 4.12 3.43 4.12L29.56 4.12C31.45 4.12 33 5.66 33 7.56L33 19.93C33 21.83 31.45 23.37 29.56 23.37ZM21.35 22L29.56 22C30.69 22 31.62 21.07 31.62 19.93L31.62 7.56C31.62 6.42 30.69 5.5 29.56 5.5L3.43 5.5C2.3 5.5 1.37 6.42 1.37 7.56L1.37 19.93C1.37 21.07 2.3 22 3.43 22L11.64 22L12.09 20.65C12.39 19.81 13.17 19.25 14.05 19.25L18.94 19.25C19.82 19.25 20.61 19.81 20.9 20.64L21.35 22Z" fill="#00329B" fill-opacity="1.000000" fill-rule="nonzero"/>
		<path id="Vector" d="M28.18 5.5C27.8 5.5 27.5 5.19 27.5 4.81L27.5 3.43C27.5 2.3 26.57 1.37 25.43 1.37L7.56 1.37C6.42 1.37 5.5 2.3 5.5 3.43L5.5 4.81C5.5 5.19 5.19 5.5 4.81 5.5C4.43 5.5 4.12 5.19 4.12 4.81L4.12 3.43C4.12 1.54 5.66 0 7.56 0L25.43 0C27.33 0 28.87 1.54 28.87 3.43L28.87 4.81C28.87 5.19 28.56 5.5 28.18 5.5Z" fill="#00329B" fill-opacity="1.000000" fill-rule="nonzero"/>
		<path id="Vector" d="M15.12 33C14.91 33 14.7 32.9 14.57 32.72C14.34 32.42 14.41 31.99 14.71 31.76L16.73 30.25L14.71 28.73C14.4 28.5 14.34 28.07 14.57 27.77C14.8 27.46 15.23 27.41 15.53 27.63L18.28 29.7C18.45 29.82 18.56 30.03 18.56 30.25C18.56 30.46 18.45 30.67 18.28 30.79L15.53 32.86C15.41 32.95 15.26 33 15.12 33Z" fill="#00329B" fill-opacity="1.000000" fill-rule="nonzero"/>
		<path id="Vector" d="M16.5 30.93C15.09 30.93 13.65 30.88 12.23 30.78C6.31 30.35 0 28.91 0 26.12C0 25.83 0.07 25.53 0.22 25.23C0.39 24.89 0.8 24.76 1.14 24.93C1.48 25.1 1.62 25.51 1.45 25.85C1.4 25.96 1.37 26.05 1.37 26.12C1.37 27.13 4.85 28.87 12.32 29.41C13.72 29.51 15.12 29.61 16.52 29.56C16.85 29.56 17.16 29.56 17.47 29.55C17.87 29.53 18.17 29.82 18.19 30.2C18.2 30.58 17.91 30.9 17.53 30.92C17.19 30.93 16.85 30.93 16.5 30.93Z" fill="#00329B" fill-opacity="1.000000" fill-rule="nonzero"/>
		<path id="Vector" d="M21.29 30.73C20.94 30.73 20.64 30.45 20.61 30.1C20.58 29.72 20.86 29.38 21.24 29.35C28.32 28.77 31.62 27.08 31.62 26.12C31.62 26.05 31.59 25.96 31.54 25.85C31.37 25.51 31.51 25.1 31.85 24.93C32.18 24.76 32.6 24.89 32.77 25.23C32.92 25.53 33 25.83 33 26.12C33 29.51 24.08 30.5 21.35 30.73C21.33 30.73 21.31 30.73 21.29 30.73Z" fill="#00329B" fill-opacity="1.000000" fill-rule="nonzero"/>
	</g>
</svg>
