<svg width="78.761719" height="20.850830" viewBox="0 0 78.7617 20.8508" fill="none" xmlns="http://www.w3.org/2000/svg" xmlns:xlink="http://www.w3.org/1999/xlink">
	<desc>
			Created with Pixso.
	</desc>
	<defs/>
	<path id="LOGO" d="M19.72 20.21Q21.47 20.85 23.46 20.85Q25.45 20.85 27.22 20.2Q27.98 19.92 28.7 19.51Q29.78 18.91 30.65 18.09Q31.71 17.1 32.47 15.78Q32.79 15.24 33.03 14.67Q33.86 12.71 33.86 10.4Q33.86 8.02 32.98 6.02Q32.76 5.51 32.48 5.04Q31.78 3.82 30.81 2.88Q29.89 1.98 28.72 1.33Q27.95 0.9 27.14 0.61Q25.41 0 23.46 0Q21.47 0 19.72 0.63Q18.93 0.91 18.19 1.33Q17.08 1.94 16.18 2.79Q15.14 3.76 14.39 5.04Q14.08 5.56 13.84 6.12Q12.99 8.08 12.99 10.4Q12.99 12.69 13.81 14.63Q14.06 15.22 14.39 15.78Q15.16 17.09 16.22 18.08Q17.1 18.91 18.19 19.51Q18.93 19.93 19.72 20.21ZM64.61 20.21Q66.36 20.85 68.35 20.85Q70.35 20.85 72.11 20.2Q72.87 19.92 73.6 19.51Q74.67 18.91 75.54 18.09Q76.6 17.1 77.36 15.78Q77.68 15.24 77.92 14.67Q78.76 12.71 78.76 10.4Q78.76 8.02 77.88 6.02Q77.65 5.51 77.38 5.04Q76.67 3.82 75.71 2.88Q74.78 1.98 73.61 1.33Q72.85 0.9 72.04 0.61Q70.3 0 68.35 0Q66.36 0 64.61 0.63Q63.82 0.91 63.08 1.33Q61.97 1.94 61.07 2.79Q60.03 3.76 59.28 5.04Q58.97 5.56 58.73 6.12Q57.88 8.08 57.88 10.4Q57.88 12.69 58.7 14.63Q58.95 15.22 59.28 15.78Q60.05 17.09 61.11 18.08Q62 18.91 63.08 19.51Q63.82 19.93 64.61 20.21ZM49.51 5.88Q49.88 6.25 50.14 6.72L55.62 6.72Q55.12 4.81 53.99 3.41Q53.27 2.51 52.3 1.82Q52.16 1.73 52.02 1.64Q49.59 0.05 46.13 0.05Q43.37 0.05 41.17 1.16Q40.97 1.26 40.76 1.38Q39.66 2 38.78 2.85Q37.8 3.81 37.1 5.06Q36.99 5.26 36.88 5.46Q35.78 7.67 35.78 10.43Q35.78 13.21 36.9 15.43Q36.99 15.61 37.1 15.8Q37.74 16.95 38.64 17.85Q39.58 18.79 40.79 19.47Q41 19.58 41.22 19.69Q43.42 20.78 46.17 20.78Q48.71 20.78 50.74 19.8Q52.71 18.85 54 17.32Q54.05 17.27 54.09 17.22Q55.32 15.73 55.88 14.03Q55.93 13.9 55.96 13.77L55.96 9.16L45.17 9.16L45.17 12.81L51.47 12.81Q50.94 14.39 49.85 15.31Q49.74 15.4 49.63 15.48Q49.47 15.59 49.31 15.69Q48.14 16.41 46.54 16.41Q44.4 16.41 42.99 15.39Q42.65 15.14 42.35 14.83Q42.21 14.68 42.08 14.52Q40.83 12.98 40.83 10.43Q40.83 8.13 41.93 6.63Q42.09 6.41 42.27 6.21Q42.74 5.7 43.31 5.35Q44.5 4.63 46.13 4.63Q47.53 4.63 48.55 5.17Q49.1 5.46 49.51 5.88ZM11.45 16.81L4.95 16.81L4.95 0.29L0 0.29L0 20.64L11.45 20.64L11.45 16.81ZM26.26 15.61Q25.07 16.32 23.46 16.32Q21.76 16.32 20.54 15.56Q19.99 15.22 19.53 14.71Q19.35 14.52 19.2 14.31Q18.06 12.78 18.06 10.4Q18.06 7.95 19.25 6.41Q19.38 6.24 19.53 6.08Q19.97 5.6 20.51 5.26Q21.74 4.49 23.46 4.49Q25.09 4.49 26.29 5.21Q26.88 5.57 27.36 6.1Q27.53 6.29 27.68 6.49Q28.82 8.02 28.82 10.4Q28.82 12.7 27.74 14.22Q27.56 14.47 27.36 14.7Q26.86 15.25 26.26 15.61ZM71.15 15.61Q69.96 16.32 68.35 16.32Q66.66 16.32 65.43 15.56Q64.88 15.22 64.42 14.71Q64.24 14.52 64.09 14.31Q62.95 12.78 62.95 10.4Q62.95 7.95 64.14 6.41Q64.27 6.24 64.42 6.08Q64.87 5.6 65.4 5.26Q66.63 4.49 68.35 4.49Q69.98 4.49 71.18 5.21Q71.77 5.57 72.25 6.1Q72.42 6.29 72.58 6.49Q73.72 8.02 73.72 10.4Q73.72 12.7 72.63 14.22Q72.46 14.47 72.25 14.7Q71.75 15.25 71.15 15.61Z" fill="#1090CB" fill-opacity="1.000000" fill-rule="evenodd"/>
</svg>
