<svg width="34.000000" height="34.000000" viewBox="0 0 34 34" fill="none" xmlns="http://www.w3.org/2000/svg" xmlns:xlink="http://www.w3.org/1999/xlink">
	<desc>
			Created with Pixso.
	</desc>
	<defs>
		<clipPath id="clip2_1097">
			<rect id="coding (1) 1" rx="0.000000" width="33.000000" height="33.000000" transform="translate(0.500000 0.500000)" fill="white" fill-opacity="0"/>
		</clipPath>
	</defs>
	<rect id="coding (1) 1" rx="0.000000" width="33.000000" height="33.000000" transform="translate(0.500000 0.500000)" fill="#FFFFFF" fill-opacity="0"/>
	<g clip-path="url(#clip2_1097)">
		<path id="Vector" d="M23.9 0.53L10.09 0.53C9.53 0.53 8.99 0.75 8.59 1.15C8.19 1.55 7.96 2.09 7.96 2.65L7.96 31.34C7.96 31.9 8.19 32.44 8.59 32.84C8.99 33.24 9.53 33.46 10.09 33.46L23.9 33.46C24.46 33.46 25 33.24 25.4 32.84C25.8 32.44 26.03 31.9 26.03 31.34L26.03 2.65C26.03 2.09 25.8 1.55 25.4 1.15C25 0.75 24.46 0.53 23.9 0.53ZM19.48 1.59L19.18 2.65L14.75 2.65L14.49 1.59L19.48 1.59ZM24.96 31.34C24.96 31.62 24.85 31.89 24.65 32.09C24.45 32.29 24.18 32.4 23.9 32.4L10.09 32.4C9.81 32.4 9.54 32.29 9.34 32.09C9.14 31.89 9.03 31.62 9.03 31.34L9.03 2.65C9.03 2.37 9.14 2.1 9.34 1.9C9.54 1.7 9.81 1.59 10.09 1.59L13.39 1.59L13.82 3.31C13.85 3.43 13.92 3.53 14.01 3.6C14.11 3.67 14.22 3.71 14.34 3.71L19.58 3.71C19.7 3.71 19.81 3.68 19.91 3.61C20 3.54 20.06 3.44 20.1 3.33L20.58 1.59L23.9 1.59C24.18 1.59 24.45 1.7 24.65 1.9C24.85 2.1 24.96 2.37 24.96 2.65L24.96 31.34Z" fill="#BB3800" fill-opacity="1.000000" fill-rule="nonzero"/>
		<path id="Vector" d="M14.34 30.28L10.62 30.28C10.48 30.28 10.34 30.33 10.24 30.43C10.14 30.53 10.09 30.67 10.09 30.81C10.09 30.95 10.14 31.08 10.24 31.18C10.34 31.28 10.48 31.34 10.62 31.34L14.34 31.34C14.48 31.34 14.61 31.28 14.71 31.18C14.81 31.08 14.87 30.95 14.87 30.81C14.87 30.67 14.81 30.53 14.71 30.43C14.61 30.33 14.48 30.28 14.34 30.28Z" fill="#BB3800" fill-opacity="1.000000" fill-rule="nonzero"/>
		<path id="Vector" d="M16.46 30.28L15.93 30.28C15.79 30.28 15.66 30.33 15.56 30.43C15.46 30.53 15.4 30.67 15.4 30.81C15.4 30.95 15.46 31.08 15.56 31.18C15.66 31.28 15.79 31.34 15.93 31.34L16.46 31.34C16.6 31.34 16.74 31.28 16.84 31.18C16.94 31.08 17 30.95 17 30.81C17 30.67 16.94 30.53 16.84 30.43C16.74 30.33 16.6 30.28 16.46 30.28Z" fill="#BB3800" fill-opacity="1.000000" fill-rule="nonzero"/>
		<path id="Vector" d="M18.86 13.88C18.8 13.85 18.74 13.82 18.67 13.81C18.6 13.8 18.53 13.81 18.46 13.82C18.39 13.84 18.33 13.87 18.27 13.91C18.22 13.95 18.17 14.01 18.13 14.07L14.95 19.38C14.87 19.5 14.85 19.64 14.89 19.78C14.92 19.92 15.01 20.03 15.13 20.11C15.25 20.18 15.39 20.2 15.53 20.17C15.67 20.13 15.78 20.05 15.86 19.92L19.04 14.61C19.08 14.55 19.1 14.49 19.11 14.42C19.12 14.35 19.12 14.28 19.1 14.21C19.09 14.14 19.06 14.08 19.02 14.02C18.97 13.97 18.92 13.92 18.86 13.88Z" fill="#BB3800" fill-opacity="1.000000" fill-rule="nonzero"/>
		<path id="Vector" d="M20.6 14.01C20.55 13.95 20.5 13.91 20.44 13.87C20.38 13.84 20.31 13.82 20.24 13.81C20.1 13.8 19.96 13.84 19.85 13.92C19.74 14.01 19.67 14.14 19.65 14.28C19.64 14.42 19.68 14.56 19.77 14.67L21.63 17L19.77 19.32C19.68 19.43 19.64 19.57 19.65 19.71C19.67 19.85 19.74 19.98 19.85 20.07C19.96 20.15 20.1 20.19 20.24 20.18C20.38 20.16 20.51 20.09 20.6 19.98L22.72 17.33C22.8 17.23 22.84 17.12 22.84 17C22.84 16.87 22.8 16.76 22.72 16.66L20.6 14.01Z" fill="#BB3800" fill-opacity="1.000000" fill-rule="nonzero"/>
		<path id="Vector" d="M13.39 19.98C13.48 20.09 13.61 20.16 13.75 20.18C13.89 20.19 14.03 20.15 14.14 20.07C14.25 19.98 14.32 19.85 14.34 19.71C14.35 19.57 14.31 19.43 14.22 19.32L12.36 17L14.22 14.67C14.27 14.62 14.3 14.55 14.32 14.49C14.34 14.42 14.34 14.35 14.34 14.28C14.33 14.21 14.31 14.14 14.27 14.08C14.24 14.02 14.19 13.97 14.14 13.92C14.09 13.88 14.02 13.85 13.96 13.83C13.89 13.81 13.82 13.8 13.75 13.81C13.68 13.82 13.61 13.84 13.55 13.87C13.49 13.91 13.44 13.95 13.39 14.01L11.27 16.66C11.19 16.76 11.15 16.87 11.15 17C11.15 17.12 11.19 17.23 11.27 17.33L13.39 19.98Z" fill="#BB3800" fill-opacity="1.000000" fill-rule="nonzero"/>
	</g>
</svg>
