<svg width="33.000000" height="33.000000" viewBox="0 0 33 33" fill="none" xmlns="http://www.w3.org/2000/svg" xmlns:xlink="http://www.w3.org/1999/xlink">
	<desc>
			Created with Pixso.
	</desc>
	<defs/>
	<path id="Vector" d="M31.71 15.65L17.59 1.53C16.6 0.54 15.28 0 13.88 0L3 0C1.34 0 0 1.34 0 3L0 13.88C0 15.28 0.54 16.6 1.53 17.59L15.65 31.71C16.47 32.53 17.59 33 18.75 33C19.9 33 21.02 32.53 21.84 31.71L31.71 21.84C32.53 21.02 33 19.9 33 18.75C33 17.59 32.53 16.47 31.71 15.65ZM30.65 20.78L20.78 30.65C19.71 31.72 17.78 31.72 16.71 30.65L2.59 16.53C1.89 15.82 1.5 14.88 1.5 13.88L1.5 3C1.5 2.17 2.17 1.5 3 1.5L13.88 1.5C14.88 1.5 15.82 1.89 16.53 2.59L30.65 16.71C31.19 17.25 31.5 17.99 31.5 18.75C31.5 19.5 31.19 20.24 30.65 20.78Z" fill="#5FC400" fill-opacity="1.000000" fill-rule="nonzero"/>
	<path id="Vector" d="M6 3C4.34 3 3 4.34 3 6C3 7.65 4.34 9 6 9C7.65 9 9 7.65 9 6C9 4.34 7.65 3 6 3ZM6 7.5C5.17 7.5 4.5 6.82 4.5 6C4.5 5.17 5.17 4.5 6 4.5C6.82 4.5 7.5 5.17 7.5 6C7.5 6.82 6.82 7.5 6 7.5Z" fill="#5FC400" fill-opacity="1.000000" fill-rule="nonzero"/>
	<path id="Vector" d="M12.95 15.07C13.82 14.19 13.82 12.76 12.95 11.89C12.65 11.59 12.65 11.12 12.95 10.83L13.48 10.29C13.76 10.01 14.25 10.01 14.54 10.29C14.68 10.44 14.76 10.62 14.76 10.82C14.76 11.03 14.68 11.21 14.54 11.35C14.24 11.65 14.24 12.12 14.54 12.42C14.83 12.71 15.3 12.71 15.6 12.42C16.02 11.99 16.26 11.43 16.26 10.82C16.26 10.22 16.02 9.66 15.6 9.23C14.75 8.38 13.26 8.39 12.42 9.23L11.88 9.76C11.01 10.64 11.01 12.07 11.89 12.95C12.18 13.24 12.18 13.71 11.89 14.01L11.35 14.54C11.07 14.82 10.58 14.82 10.29 14.54C10.15 14.4 10.07 14.21 10.07 14.01C10.07 13.81 10.15 13.62 10.29 13.48C10.59 13.18 10.59 12.71 10.3 12.42C10 12.12 9.53 12.12 9.23 12.42C8.81 12.84 8.57 13.41 8.57 14.01C8.57 14.61 8.81 15.17 9.23 15.6C9.66 16.02 10.22 16.26 10.82 16.26C11.43 16.26 11.99 16.02 12.42 15.6L12.95 15.07Z" fill="#5FC400" fill-opacity="1.000000" fill-rule="nonzero"/>
	<path id="Vector" d="M17.72 17.72C18.01 17.43 18.01 16.95 17.72 16.66L16.66 15.6L18.25 14.01L19.84 15.6C20.13 15.89 20.61 15.89 20.9 15.6C21.19 15.3 21.19 14.83 20.9 14.54L18.78 12.42C18.49 12.12 18.01 12.12 17.72 12.42L12.42 17.72C12.12 18.01 12.12 18.49 12.42 18.78L14.54 20.9C14.68 21.05 14.88 21.12 15.07 21.12C15.26 21.12 15.45 21.05 15.6 20.9C15.89 20.61 15.89 20.13 15.6 19.84L14.01 18.25L15.6 16.66L16.66 17.72C16.8 17.87 17 17.94 17.19 17.94C17.38 17.94 17.57 17.87 17.72 17.72Z" fill="#5FC400" fill-opacity="1.000000" fill-rule="nonzero"/>
	<path id="Vector" d="M20.9 17.72C20.9 17.72 20.9 17.72 20.9 17.72L17.72 20.9C16.84 21.78 16.84 23.21 17.72 24.08C18.16 24.52 18.73 24.74 19.31 24.74C19.89 24.74 20.46 24.52 20.9 24.08L24.08 20.9C24.96 20.02 24.96 18.6 24.08 17.72C23.21 16.84 21.78 16.84 20.9 17.72ZM23.02 19.84L19.84 23.02C19.55 23.31 19.07 23.32 18.78 23.02C18.49 22.73 18.49 22.25 18.78 21.96L21.96 18.78C22.25 18.49 22.73 18.49 23.02 18.78C23.31 19.07 23.31 19.55 23.02 19.84Z" fill="#5FC400" fill-opacity="1.000000" fill-rule="nonzero"/>
</svg>
