<svg width="41.000000" height="41.000000" viewBox="0 0 41 41" fill="none" xmlns="http://www.w3.org/2000/svg" xmlns:xlink="http://www.w3.org/1999/xlink">
	<desc>
			Created with Pixso.
	</desc>
	<defs>
		<clipPath id="clip2_1049">
			<rect id="website-content 1" rx="0.000000" width="40.000000" height="40.000000" transform="translate(0.500000 0.500000)" fill="white" fill-opacity="0"/>
		</clipPath>
	</defs>
	<rect id="website-content 1" rx="0.000000" width="40.000000" height="40.000000" transform="translate(0.500000 0.500000)" fill="#FFFFFF" fill-opacity="0"/>
	<g clip-path="url(#clip2_1049)">
		<path id="Vector" d="M3.84 3.2L5.12 3.2L5.12 4.48L3.84 4.48L3.84 3.2Z" fill="#4628A4" fill-opacity="1.000000" fill-rule="nonzero"/>
		<path id="Vector" d="M6.4 3.2L7.68 3.2L7.68 4.48L6.4 4.48L6.4 3.2Z" fill="#4628A4" fill-opacity="1.000000" fill-rule="nonzero"/>
		<path id="Vector" d="M8.96 3.2L10.25 3.2L10.25 4.48L8.96 4.48L8.96 3.2Z" fill="#4628A4" fill-opacity="1.000000" fill-rule="nonzero"/>
		<path id="Vector" d="M4.48 19.21L18.57 19.21C18.74 19.21 18.91 19.15 19.03 19.03C19.15 18.91 19.21 18.74 19.21 18.57L19.21 8.32C19.21 8.15 19.15 7.99 19.03 7.87C18.91 7.75 18.74 7.68 18.57 7.68L4.48 7.68C4.31 7.68 4.15 7.75 4.03 7.87C3.91 7.99 3.84 8.15 3.84 8.32L3.84 18.57C3.84 18.74 3.91 18.91 4.03 19.03C4.15 19.15 4.31 19.21 4.48 19.21ZM5.12 8.96L17.93 8.96L17.93 17.93L5.12 17.93L5.12 8.96Z" fill="#4628A4" fill-opacity="1.000000" fill-rule="nonzero"/>
		<path id="Vector" d="M4.48 31.39L18.57 31.39C18.74 31.39 18.91 31.32 19.03 31.2C19.15 31.08 19.21 30.91 19.21 30.75L19.21 21.14C19.21 20.97 19.15 20.8 19.03 20.68C18.91 20.56 18.74 20.5 18.57 20.5L4.48 20.5C4.31 20.5 4.15 20.56 4.03 20.68C3.91 20.8 3.84 20.97 3.84 21.14L3.84 30.75C3.84 30.91 3.91 31.08 4.03 31.2C4.15 31.32 4.31 31.39 4.48 31.39ZM5.12 21.78L17.93 21.78L17.93 30.1L5.12 30.1L5.12 21.78Z" fill="#4628A4" fill-opacity="1.000000" fill-rule="nonzero"/>
		<path id="Vector" d="M30.1 31.39L31.39 31.39L31.39 32.67L30.1 32.67L30.1 31.39Z" fill="#4628A4" fill-opacity="1.000000" fill-rule="nonzero"/>
		<path id="Vector" d="M35.23 31.39L36.51 31.39L36.51 32.67L35.23 32.67L35.23 31.39Z" fill="#4628A4" fill-opacity="1.000000" fill-rule="nonzero"/>
		<path id="Vector" d="M33.31 35.87C32.97 35.87 32.64 35.74 32.4 35.49C32.16 35.25 32.03 34.93 32.03 34.59L30.75 34.59C30.75 35.27 31.02 35.92 31.5 36.4C31.98 36.88 32.63 37.15 33.31 37.15C33.99 37.15 34.64 36.88 35.12 36.4C35.6 35.92 35.87 35.27 35.87 34.59L34.59 34.59C34.59 34.93 34.45 35.25 34.21 35.49C33.97 35.74 33.65 35.87 33.31 35.87Z" fill="#4628A4" fill-opacity="1.000000" fill-rule="nonzero"/>
		<path id="Vector" d="M14.41 12.89L9.92 10.33C9.83 10.27 9.72 10.24 9.6 10.24C9.49 10.24 9.38 10.27 9.28 10.33C9.19 10.39 9.11 10.47 9.05 10.56C8.99 10.66 8.96 10.77 8.96 10.89L8.96 16.01C8.96 16.12 8.99 16.23 9.05 16.33C9.11 16.43 9.19 16.51 9.28 16.57C9.38 16.62 9.49 16.65 9.6 16.65C9.72 16.65 9.83 16.62 9.92 16.57L14.41 14C14.51 13.95 14.59 13.87 14.65 13.77C14.7 13.67 14.73 13.56 14.73 13.45C14.73 13.34 14.7 13.22 14.65 13.13C14.59 13.03 14.51 12.95 14.41 12.89ZM10.25 14.91L10.25 11.99L12.8 13.45L10.25 14.91Z" fill="#4628A4" fill-opacity="1.000000" fill-rule="nonzero"/>
		<path id="Vector" d="M33.95 19.85C34.07 19.85 34.19 19.82 34.29 19.75C34.39 19.69 34.48 19.6 34.53 19.49C34.58 19.37 34.6 19.25 34.58 19.13C34.57 19.01 34.52 18.9 34.44 18.8L31.24 14.96C31.18 14.89 31.11 14.84 31.03 14.8C30.95 14.76 30.86 14.73 30.77 14.73C30.68 14.72 30.6 14.74 30.51 14.77C30.43 14.8 30.35 14.85 30.29 14.92L29.35 15.86L28.03 14.31C27.97 14.25 27.89 14.19 27.81 14.16C27.72 14.12 27.63 14.1 27.54 14.1C27.45 14.1 27.36 14.12 27.28 14.16C27.19 14.19 27.12 14.25 27.06 14.31L23.21 18.8C23.13 18.89 23.08 19 23.06 19.13C23.05 19.25 23.07 19.37 23.12 19.48C23.17 19.59 23.25 19.69 23.35 19.75C23.46 19.82 23.58 19.85 23.7 19.85L33.95 19.85ZM25.09 18.57L27.54 15.71L29.99 18.57L25.09 18.57ZM30.7 16.32L32.58 18.57L31.68 18.57L30.19 16.83L30.7 16.32Z" fill="#4628A4" fill-opacity="1.000000" fill-rule="nonzero"/>
		<path id="Vector" d="M39.07 1.28L1.92 1.28C1.75 1.28 1.58 1.34 1.46 1.46C1.34 1.58 1.28 1.75 1.28 1.92L1.28 33.31C1.28 33.48 1.34 33.64 1.46 33.76C1.58 33.88 1.75 33.95 1.92 33.95L26.93 33.95C27.1 35.58 27.89 37.09 29.13 38.16C30.38 39.23 31.99 39.78 33.63 39.7C35.27 39.62 36.82 38.91 37.95 37.72C39.08 36.53 39.71 34.95 39.71 33.31L39.71 1.92C39.71 1.75 39.65 1.58 39.53 1.46C39.41 1.34 39.24 1.28 39.07 1.28ZM33.31 38.43C32.29 38.43 31.3 38.13 30.46 37.57C29.62 37.01 28.96 36.21 28.57 35.27C28.18 34.33 28.08 33.3 28.28 32.31C28.48 31.31 28.97 30.4 29.68 29.68C30.4 28.97 31.31 28.48 32.31 28.28C33.3 28.08 34.33 28.18 35.27 28.57C36.21 28.96 37.01 29.62 37.57 30.46C38.13 31.3 38.43 32.29 38.43 33.31C38.43 34.67 37.89 35.97 36.93 36.93C35.97 37.89 34.67 38.43 33.31 38.43ZM27.77 30.1L21.78 30.1L21.78 8.96L35.87 8.96L35.87 27.44C34.43 26.81 32.8 26.73 31.31 27.22C29.81 27.71 28.55 28.74 27.77 30.1ZM38.43 29.48C38.07 28.99 37.64 28.56 37.15 28.19L37.15 8.32C37.15 8.15 37.08 7.99 36.96 7.87C36.84 7.75 36.68 7.68 36.51 7.68L21.14 7.68C20.97 7.68 20.8 7.75 20.68 7.87C20.56 7.99 20.5 8.15 20.5 8.32L20.5 30.75C20.5 30.91 20.56 31.08 20.68 31.2C20.8 31.32 20.97 31.39 21.14 31.39L27.2 31.39C27.07 31.8 26.98 32.23 26.93 32.67L2.56 32.67L2.56 6.4L38.43 6.4L38.43 29.48ZM38.43 5.12L2.56 5.12L2.56 2.56L38.43 2.56L38.43 5.12Z" fill="#4628A4" fill-opacity="1.000000" fill-rule="nonzero"/>
		<path id="Vector" d="M6.4 23.06L16.65 23.06L16.65 24.34L6.4 24.34L6.4 23.06Z" fill="#4628A4" fill-opacity="1.000000" fill-rule="nonzero"/>
		<path id="Vector" d="M6.4 25.62L16.65 25.62L16.65 26.9L6.4 26.9L6.4 25.62Z" fill="#4628A4" fill-opacity="1.000000" fill-rule="nonzero"/>
	</g>
</svg>
